<svg preserveAspectRatio="none" version="1.1" viewBox="-8 -8 16 16" xmlns="http://www.w3.org/2000/svg">
 <path d="m-6.5421-4.4598q-0.12999 0.17999-0.25399 0.36398-0.12599 0.18599-0.23799 0.37998-0.112 0.19399-0.21399 0.39398-0.102 0.19799-0.19399 0.39798-0.093996 0.20599-0.17199 0.41398-0.077997 0.20399-0.14799 0.40998-0.037999 0.108-0.065997 0.21999-0.069997 0.29199-0.108 0.59198-0.061997 0.51598-0.065997 1.034-0.01 0.96396 0.21199 1.9039 0.27799 1.19 0.93996 2.2219 0.20799 0.32399 0.44598 0.62997 0.23999 0.30599 0.51198 0.59798 0.53198 0.56798 1.182 1.006 0.38398 0.26199 0.79197 0.48598 0.12799 0.071997 0.25599 0.14199 0.059997 0.031999 0.12199 0.063997 0.16799 0.089996 0.34799 0.17399 0.15999 0.073997 0.32599 0.14199 0.45198 0.18799 0.92996 0.27199 0.31399 0.061997 0.62797 0.104 0.43398 0.049998 0.87596 0.055998 0.24399 4e-3 0.48598 2e-3 0.104-2e-3 0.20799-6e-3 0.20399-0.013999 0.40998-0.027999 0.50198-0.043998 0.99396-0.14599 0.67197-0.13799 1.3079-0.39198 0.27599-0.11 0.53398-0.23399 0.70997-0.34399 1.3399-0.80997 0.61597-0.45598 1.142-1.008 0.72797-0.76797 1.2239-1.7039 0.21799-0.41198 0.37998-0.85196 0.108-0.29399 0.18199-0.59398 0.037998-0.15399 0.071997-0.30799 0.055998-0.22799 0.085996-0.46598 0.019999-0.16599 0.031999-0.33399 0.019999-0.24799 0.027999-0.49598 0.011999-0.37598-0.01-0.74797-0.023999-0.40598-0.093996-0.79597-0.051998-0.28599-0.12599-0.56798-0.055998-0.21599-0.13199-0.42398-0.15199-0.43598-0.35199-0.84396-0.30199-0.61597-0.71997-1.16-0.21999-0.28599-0.46198-0.55198-0.18399-0.20599-0.37598-0.39998-0.18799-0.18599-0.38398-0.36198-0.57998-0.51998-1.2259-0.96396-0.44798-0.30999-0.91196-0.58798-0.16599-0.099996-0.34399-0.16199-0.102-0.035998-0.20799-0.055998-0.14599-0.027999-0.29399-0.027999-0.12199 0-0.23799 0.041998-0.083997 0.029999-0.16199 0.069997-0.081997 0.041998-0.15999 0.095996-0.083997 0.057998-0.14599 0.13599-0.13999 0.17599-0.15399 0.40198-4e-3 0.067997 0.012 0.13399 0.049998 0.20599 0.18399 0.37198 0.039998 0.047998 0.087996 0.091996 0.31799 0.29199 0.66597 0.56198 0.26799 0.20599 0.53398 0.41598 0.19999 0.15599 0.38998 0.32799 0.17999 0.16399 0.35399 0.33799 0.16999 0.17199 0.32599 0.35599t0.29999 0.37798q0.071997 0.095996 0.13599 0.19799 0.11 0.16799 0.20399 0.33999 0.118 0.21399 0.21599 0.42798 0.067997 0.14799 0.13599 0.29599 0.077997 0.18199 0.14399 0.38198 0.067997 0.19399 0.12399 0.39198 0.112 0.38598 0.16399 0.79197 0.017999 0.15399 0.031999 0.30999 0.019999 0.24199 0.023999 0.48398 2e-3 0.17999-0.013999 0.36198-0.014 0.18199-0.037999 0.35999-0.037999 0.27799-0.114 0.54998-0.079997 0.28399-0.18799 0.54998-0.071997 0.17999-0.15799 0.35199-0.12599 0.24999-0.26799 0.49598-0.073997 0.12599-0.15799 0.24199-0.34599 0.47998-0.78597 0.87596-0.13599 0.12-0.28999 0.19999-0.21399 0.108-0.44798 0.15599-0.30199 0.057998-0.59598-0.039998-0.122-0.039998-0.23999-0.087996-0.29999-0.13199-0.51398-0.37598-0.20999-0.23599-0.32599-0.52198-0.039998-0.099996-0.071997-0.20399-0.043998-0.15399-0.055998-0.31999-6e-3 -0.083997-6e-3 -0.16799-2e-3 -0.18399 0.031999-0.37398 0.017999-0.102 0.049998-0.20199 0.041998-0.13999 0.106-0.26999 0.061997-0.13199 0.14399-0.24999 0.12999-0.18599 0.29599-0.34399 0.20799-0.19799 0.40398-0.40398 0.21399-0.22199 0.40398-0.46998 0.114-0.14599 0.22199-0.29999 0.15599-0.22399 0.28999-0.47198 0.039998-0.073997 0.075997-0.14999 0.051998-0.11 0.097996-0.22399 0.021999-0.057998 0.033999-0.12199 0.027999-0.15599 0.055998-0.31199 0.025999-0.15199 0.061997-0.30199 0.025999-0.114 0.059997-0.22799 0.021999-0.011999 0.043998-0.023999 0.021999-0.01 0.047998-0.017999 0.053998-2e-3 0.108-2e-3 0.041998 0 0.083997 2e-3 0.049998 0.013999 0.097996 0.031999 0.035999 0.015999 0.065997 0.037998 0.015999 0.011999 0.029999 0.029999l-0.093996 0.19799-0.045998-0.12q-2e-3 -2e-3 -4e-3 -4e-3 -0.015999-2e-3 -0.029999-4e-3 -2e-3 -2e-3 -4e-3 -2e-3 -0.043998 0-0.085996 0-0.019999 6e-3 -0.033999 0.019999-0.025999 0.017999-0.041998 0.043998-0.013999 0.019999-0.021999 0.043998-8e-3 0.027999-8e-3 0.057998-2e-3 0.031999 4e-3 0.059997 2e-3 0.015999 6e-3 0.031999 0.01 8e-3 0.019999 0.015999 8e-3 0.01 0.019999 0.019999 8e-3 0.01 0.017999 0.015999 0.021999 0.013999 0.047998 0.025999 0.021999 0.011999 0.045998 0.021999 0.017999 2e-3 0.037998 4e-3 0.013999 0 0.029999 0 0.045998-0.029999 0.091996-0.063997 0.069997-0.049998 0.13399-0.106 0.021999-0.017999 0.039998-0.043998 0.017999-0.023999 0.029999-0.049998 0.023999-0.053998 0.043998-0.106 0.029999 0.019999 0.063997 0.039998 0.087996 0.049998 0.18199 0.069997 0.14199 0.013999 0.28399-0.011999 0.041998-0.013999 0.071997-0.049998 0.035998-0.039998 0.061997-0.081997 0.019999-0.031999 0.031999-0.065997 0.011999-0.047998 0.013999-0.095996 2e-3 -0.055998-0.01-0.108-4e-3 -0.029999-0.015999-0.055998-4e-3 -4e-3 -8e-3 -8e-3 -8e-3 -2e-3 -0.015999-4e-3 -0.055998-0.023999-0.11-0.035998-0.017999-8e-3 -0.037998-8e-3 -0.037998-4e-3 -0.063997 0.011999-0.073997 0.057998-0.13399 0.13599l4e-3 0.049998 0.104 0.053998 0.108-0.108 0.041998 0.053998-0.011999 0.057998-0.12199 0.069997q-0.019999-2e-3 -0.035998-6e-3 -0.025999-0.011999-0.045998-0.029999-0.067997-0.055998-0.12399-0.12-0.12799-0.14399-0.24399-0.29199 4e-3 -0.033999 0.01-0.065997 0.025999-0.118 0.045998-0.23799 6e-3 -0.039998-4e-3 -0.075997-0.012-0.051998-0.039998-0.093996-0.029999-0.049998-0.073997-0.087996-0.047998-0.035998-0.095996-0.067997-0.095996 0.027999-0.18799 0.059998-0.077997 0.031999-0.14799 0.079997-0.025999 0.017999-0.037999 0.051998-0.011999 0.027999-8e-3 0.057998 4e-3 0.035998 0.023999 0.067997 0.017999 0.029999 0.049998 0.039998 0.063997 0.019999 0.13399 0.029999l0.039998-0.057998-0.073997-0.14599 0.14199-0.013999 0.087996 0.16399-0.041998 0.104q-0.027999 8e-3 -0.053998 0.019999-0.069997 0.013999-0.13999 0.019999-0.067997 0.017999-0.13999 0.025999-0.071997 0.011999-0.14399 0.025999-0.049998 6e-3 -0.095996 0.011999-0.083997 0.043998-0.14799 0.12199-0.097996 0.12799-0.16199 0.26799-0.104 0.22599-0.20399 0.45198-0.055998 0.12199-0.106 0.24799-0.055998 0.12999-0.116 0.25799-0.067997 0.14199-0.14599 0.28199-0.047998 0.087996-0.112 0.16599-0.025999 0.033999-0.063997 0.057998l-0.057998-0.063997q0.029999-0.114 0.061997-0.22799 0.097996-0.34599 0.20999-0.67797 0.093996-0.27799 0.19599-0.55598 0.021999-0.055998 0.041998-0.112 0.015999-0.043998 0.025999-0.087996 8e-3 -0.027999 0.021999-0.055998 0.027999-0.049998 0.065997-0.091996 0.015999-0.021999 0.037998-0.037998l0.019999 0.067997-0.025999 0.013999-0.043998 0.085996 0.077997 0.12199 0.053998 8e-3q8e-3 -8e-3 0.013999-0.015999 0.049998-0.061997 0.083997-0.13599 0.043998-0.089996 0.039998-0.18599-4e-3 -0.071997-0.059997-0.11-0.059998-0.039998-0.122-0.053998-0.031999-6e-3 -0.063997-8e-3 -0.027999 0.01-0.055998 0.027999-0.051998 0.033999-0.091996 0.077997-0.069997 0.081997-0.12799 0.17399-0.057998 0.093996-0.12 0.18599-6e-3 0.01-0.015999 0.017999-4e-3 -0.013999-0.01-0.025999-0.015999-0.039998-6e-3 -0.083997 0.013999-0.085996 0.073997-0.15799 0.073997-0.087996 0.16599-0.15599 0.13999-0.102 0.28399-0.18399 0.11-0.069997 0.22799-0.12599 0.095996-0.047998 0.18599-0.102 0.057997-0.033999 0.097996-0.085996 0.033999-0.045998 0.053998-0.097996 0.019999-0.055998 0.029999-0.114 0.015999-0.091996 0.013999-0.18399 0-0.039998-0.017999-0.077997-0.041998-0.091996-0.087996-0.17999-0.097996-0.011999-0.19399 6e-3 -0.14399-2e-3 -0.26999 0.073997-0.031999 0.019999-0.053998 0.049998-0.035999 0.045998-0.061997 0.099996-0.015999 0.037999-0.021999 0.079997-2e-3 0.019999 2e-3 0.041998 6e-3 0.015999 0.021999 0.027999 0.033999 0.031999 0.075997 0.053998 0.057998 0.027999 0.118 0.049998 0.041998-0.023999 0.083997-0.051998 8e-3 -6e-3 0.015999-0.013999 0.01-8e-3 0.013999-0.017999 2e-3 -8e-3 2e-3 -0.013999l-0.14799-0.18999q0.063997-4e-3 0.12599 8e-3 0.033999 0 0.059998 0.023999 0.035998 0.033999 0.049998 0.079997 0.013999 0.039998 4e-3 0.081997-0.01 0.035999-0.031999 0.069997-0.023999 0.033999-0.057998 0.061997-0.037998 0.031999-0.085996 0.051998-0.043998 0.021999-0.087996 0.037998-0.045998 0.015999-0.091996 0.029999-0.12999 0.031999-0.26199 0.055998-0.089996 0.019999-0.17999 0.019999-0.029999 0-0.057998-0.01-0.015999-0.073997-0.029999-0.14799-0.031999-0.18199-0.069997-0.35799-0.025999-0.11-0.065997-0.21599-0.011999-0.031999-0.029999-0.053998-0.019999-0.027999-0.043998-0.049998-0.059997-0.051998-0.12799-0.095996-0.049998-0.031999-0.104-0.055998-0.12999 0.013999-0.24399 0.055998-0.031999 0.011999-0.057998 0.033999-0.039998 0.039998-0.077997 0.085996-0.067997 0.083997-0.087996 0.19599-0.017999 0.11 0.033999 0.20399 0.017999 0.029999 0.043998 0.053998 0.023999 0.019999 0.055998 0.035999 0.019999 0.011999 0.045998 0.019999 0.023999-6e-3 0.047998-0.011999 0.029999-0.013999 0.061997-0.029999 0.031999-0.015999 0.061997-0.035999l-0.011999-0.15399-0.12799-0.057998 0.023999-0.112q0.073997 0.01 0.14399 0.037998 0.039998 8e-3 0.067997 0.041998 0.025999 0.031999 0.043998 0.069997 0.047998 0.108 0.053998 0.23199 8e-3 0.20799 0 0.42398-0.01 0.25799-0.045998 0.51398-0.019999 0.14399-0.047998 0.28599-0.049998 0.27799-0.116 0.55598-0.023999 0.097996-0.065997 0.18999-0.114 0.25199-0.24199 0.49798-0.027999 0.053998-0.067997 0.102-0.037998 0.045998-0.081997 0.085996l-0.077997-0.035998q-8e-3 -0.041998-0.01-0.083997-4e-3 -0.14399 0.065997-0.27599 0.053998-0.102 0.106-0.20199 0.112-0.21599 0.19399-0.43798 0.073997-0.19799 0.112-0.40998 0.017999-0.095996 4e-3 -0.18599-8e-3 -0.053998-0.029999-0.102-0.041998-0.102-0.097996-0.19599-0.045998-0.079997-0.12399-0.12599-0.057998-0.027999-0.114-0.053998-0.057997-0.019999-0.116-0.019999-0.106-2e-3 -0.21199 0.011999-0.055998-4e-3 -0.11 0.017999-0.087996 0.039998-0.16599 0.102-0.104 0.081997-0.18999 0.19399-0.069997 0.093996-0.099996 0.21199-0.013999 0.057998-0.021999 0.12-0.013999 0.112-0.01 0.22599 2e-3 0.041998 0.021999 0.083997 0.013999 0.033999 0.045998 0.057998 0.027999 0.023999 0.063997 0.033999 0.045998 0.013999 0.095996 0.023999 0.01-6e-3 0.021999-0.013999 0.021999-0.01 0.039998-0.027999 0.023999-0.021999 0.037998-0.051998 0.015999-0.037998 0.015999-0.081997 2e-3 -0.045998-0.01-0.091996-0.025999-0.077997-0.055998-0.15399l0.178-0.27999q0.033999 2e-3 0.067997 6e-3 0.099996 0.013999 0.17799 0.071997 0.087996 0.069997 0.13799 0.16599 0.017999 0.039998 0.011999 0.085996-0.021999 0.15199-0.077997 0.30199-0.035999 0.099996-0.081997 0.19799-0.025999 0.055998-0.061997 0.106-0.071997 0.097996-0.15599 0.18599-0.041998 0.047998-0.097996 0.081997-0.047998 0.035999-0.106 0.047998-0.14799 0.039998-0.29999 0.061997-0.14399-0.104-0.19199-0.27599-0.057998-0.20199-0.065997-0.40998-8e-3 -0.17599 2e-3 -0.35399 8e-3 -0.12599 0.027999-0.24799 0.023999-0.12199 0.061997-0.24199 0.085996-0.28599 0.21199-0.54998 0.049998-0.106 0.114-0.20599 0.049998-0.079997 0.114-0.15199 0.097996-0.106 0.21199-0.19399 0.114-0.083997 0.22999-0.16399 0.033999-0.023999 0.061997-0.049998 0.087996-0.079997 0.15399-0.17399 0.055998-0.083996 0.095996-0.17199 0.033999-0.069997 0.041998-0.14599 4e-3 -0.045998 0-0.093996-2e-3 -0.041998-0.015999-0.077997-0.019999-0.045998-0.051998-0.083996-0.033999-0.047998-0.079997-0.081997-0.061997-0.043998-0.13399-0.077997-0.045998-0.019999-0.093996-0.033999-0.031999 8e-3 -0.063997 0.017999-0.079997 0.017999-0.12799 0.079997-0.075997 0.108-0.102 0.25399-8e-3 0.043998 0 0.087996 8e-3 0.041998 0.035999 0.071997 0.025999 0.033999 0.061997 0.047998 0.039998 0.011999 0.083997 0.011999 0.021999-8e-3 0.041998-0.017999 0.019999-0.01 0.035999-0.025999 0.017999-0.021999 0.037998-0.043998-2e-3 -0.013999-6e-3 -0.023999-4e-3 -0.015999-0.01-0.027999-8e-3 -0.019999-0.017999-0.031999-0.013999-0.013999-0.027999-0.021999-0.015999-4e-3 -0.029999-6e-3 -0.011999-6e-3 -0.021999-0.013999-0.01-8e-3 -0.011999-0.017999-6e-3 -0.013999-6e-3 -0.027999 0-0.013999 4e-3 -0.027999 8e-3 -0.01 0.019999-0.019999 0.01-0.011999 0.023999-0.017999 0.011999-8e-3 0.025999-0.011999 0.021999-8e-3 0.041998-0.013999 0.025999 2e-3 0.053998 6e-3 0.019999 4e-3 0.039998 0.011999 0.015999 6e-3 0.031999 0.017999 0.01 0.01 0.019999 0.023999 0 0.045998-6e-3 0.091996-2e-3 0.029999-0.015999 0.055998-0.021999 0.037998-0.049998 0.071997-0.051998 0.049998-0.108 0.095996-0.047998 0.033999-0.099996 0.059997-0.041998 0.023999-0.085996 0.039998-0.118 0.029999-0.23399 0.061997-0.017999-0.017999-0.035998-0.035998-0.063997-0.071997-0.087996-0.16799-0.051998-0.22199-0.114-0.42598-0.019999-0.069997-0.051998-0.13199-0.037998-0.069997-0.087996-0.12399-0.106-0.12-0.22399-0.22599-0.037998-0.033999-0.079997-0.059998-0.045998-0.021999-0.093996-0.031999-0.053998-8e-3 -0.11 6e-3 -0.13199 0.023999-0.26199 0.057997-0.045998 0.085996-0.077997 0.17799-0.021999 0.061997-0.023999 0.12799 0 0.061997 0.015999 0.118 0.01 0.035998 0.033999 0.061997 0.017999 0.021999 0.047998 0.037998 0.037998 0.019999 0.077997 0.037998l0.108-0.067997q0-4e-3 2e-3 -8e-3 6e-3 -0.013999 0.012-0.027999 6e-3 -0.01 8e-3 -0.019999 2e-3 -0.012 2e-3 -0.021999 0-0.017999-4e-3 -0.031999-6e-3 -0.021999-0.013999-0.041998-6e-3 -0.015999-0.017999-0.025999-0.049998-0.039998-0.106-0.073997 0.012-0.011999 0.025999-0.021999t0.031999-0.013999q0.015999-0.01 0.035998-0.011999 0.021999-2e-3 0.045998-4e-3 0.049998 0.033999 0.093996 0.071997t0.071997 0.089996q0.019999 0.029999 0.031999 0.065997 0.041998 0.12399 0.059998 0.26399 0.015999 0.12999 0.021999 0.26399 4e-3 0.11-0.012 0.21999-0.041998 0.27799-0.104 0.55398-0.013999 0.071997-0.047998 0.13799-0.031999 0.061997-0.069997 0.12399-0.045998 0.069997-0.116 0.114-0.033999 0.019999-0.069997 0.019999-0.027999 6e-3 -0.055998 0.013999-0.059998-2e-3 -0.12-2e-3 -0.055998 8e-3 -0.112 0.023999-0.023999 8e-3 -0.039998 0.027999-0.039998 0.041998-0.067997 0.093996-0.035998 0.071997-0.053998 0.15199-0.012 0.059998-2e-3 0.116 0.01 0.059998 0.033999 0.114 0.01 0 0.023999 0 0.013999 0 0.029999 2e-3 0.025999-6e-3 0.047998-0.017999 0.027999-0.01 0.051998-0.023999l0.029999-0.13799-0.077997-0.043998 0.029999-0.073997 0.112-0.025999 0.099996 0.059998q6e-3 0.015999 8e-3 0.029999 0.01 0.057998 0.013999 0.116 6e-3 0.106-0.013999 0.21199-0.012 0.055998-0.029999 0.11-0.027999 0.093996-0.067997 0.18599-0.017999 0.043998-0.041998 0.083997-0.031999 0.055998-0.075997 0.108-0.039998 0.049998-0.089996 0.093996-0.031999 0.025999-0.065997 0.049998l-0.081997-0.025999q-0.01-0.013999-0.019999-0.027999-0.017999-0.029999-0.029999-0.055998-0.055998-0.108-0.099996-0.21999-0.037998-0.095996-0.057998-0.19599-0.027999-0.15199-0.033999-0.30799-2e-3 -0.055998 0.021999-0.11 0.029999-0.069997 0.079997-0.12799 0.035998-0.049998 0.071997-0.097996 0.049998-0.069997 0.079997-0.14799 0.043998-0.102 0.063997-0.20999 0.021999-0.13199 0.021999-0.26399 0-0.097996-0.021999-0.19399-0.01-0.049998-0.039998-0.095996-0.039998-0.061997-0.091996-0.099996-0.035998-0.023999-0.079997-0.019999-0.051998-0.011999-0.099996 0-0.061997 0-0.114 0.029999-0.061997 0.033999-0.112 0.083997-0.027999 0.019999-0.049998 0.047998-0.017999 0.025999-0.027999 0.057998-0.019999 0.067997-0.015999 0.13599 4e-3 0.067997 0.025999 0.13599l0.13999 0.021999 0.112-0.095996-0.025999-0.075997-0.055998-0.045998 0.114-0.073997q0.041998 0.015999 0.059998 0.057998 0.031999 0.067997 0.021999 0.13999-0.012 0.093996-0.049998 0.18599-0.023999 0.057998-0.057998 0.114-0.019999 0.033999-0.045998 0.063997-0.047998 0.047998-0.099996 0.087996-0.025999 0.017999-0.055998 0.029999-0.029999 0.011999-0.059997 0.019999-0.065997 2e-3 -0.12799 4e-3 -0.071997-0.11-0.114-0.23599-0.041998-0.118-0.045998-0.24799-4e-3 -0.18199-2e-3 -0.36198 6e-3 -0.21999 0.031999-0.43598 0.017999-0.13999 0.057998-0.27199 0.031999-0.11 0.087996-0.20799 0.033999-0.067997 0.093996-0.11 0.073997-0.059997 0.15799-0.102l0.116 0.081996-0.025999 0.122q-0.015999-0.01-0.031999-0.017999-0.027999-2e-3 -0.053998-4e-3 -0.017999 6e-3 -0.031999 0.015999-0.025999 0.01-0.047998 0.025999-0.023999 0.015999-0.045998 0.031999l0.025999 0.12199q0.015999 0.011999 0.035998 0.023999 0.015999 0.011999 0.035999 0.017999 0.043998 0.017999 0.093996 0.031999 0.049998-0.023999 0.102-0.047998 0.017999-0.01 0.035998-0.023999 0.065997-0.041998 0.079997-0.12599 0.013999-0.099996 4e-3 -0.21199-4e-3 -0.041998-0.027999-0.081997-0.015999-0.023999-0.035998-0.039998-0.055998-0.049998-0.13199-0.065997-0.083997-6e-3 -0.16599 0-0.077997 0.017999-0.14599 0.065997-0.114 0.079997-0.21399 0.18199-0.13599 0.14199-0.26799 0.28599-0.031999 0.035998-0.069997 0.059997-0.055998 0.033999-0.114 0.059998-0.116-0.029999-0.22799-0.063997-0.16399-0.053998-0.31999 0.011999-0.045998 0.019999-0.085997 0.049998-0.075997 0.061997-0.087996 0.16399-6e-3 0.047998-4e-3 0.093996 4e-3 0.055998 0.021999 0.112 0.015999 0.053998 0.039998 0.106 0.011999 0.021999 0.031999 0.043998 0.017999 0.017999 0.041998 0.031999 0.059997 0.021999 0.12399 0.043998 0.021999-0.013999 0.043998-0.029999 0.011999-6e-3 0.021999-0.015999 0.01-0.01 0.019999-0.019999 0.01-8e-3 0.015999-0.017999 8e-3 -0.01 0.013999-0.019999 8e-3 -0.011999 0.013999-0.023999 6e-3 -0.011999 0.01-0.019999 8e-3 -0.025999 0.013999-0.051998 4e-3 -0.015999 6e-3 -0.029999 2e-3 -0.015999 4e-3 -0.027999l-0.059998-0.065997-0.22999 0.011999 8e-3 -0.077997 0.12999-0.091996q0.073997 0.01 0.14599 0.029999 0.097996 0.021999 0.15599 0.104 0.033999 0.045998 0.055998 0.102 0.025999 0.073997 0.033999 0.14999 0.019999 0.22199 0.031999 0.44798 0.019999 0.35199 0.063997 0.70197 0.013999 0.12399 0.049998 0.24399 0.12 0.41198 0.26199 0.82597 0.033999 0.104 0.061997 0.21399 0.027999 0.102 0.041998 0.20799 0.031999 0.24199 0.047998 0.48598 4e-3 0.061997-0.013999 0.12-8e-3 0.033999-0.031999 0.057998-0.023999 0.027999-0.053998 0.053998-0.083997-0.041998-0.16799-0.083997-0.063997-0.027999-0.106-0.083997-0.071997-0.097996-0.13599-0.19799-0.069997-0.106-0.13199-0.21599-0.061997-0.112-0.116-0.22999-0.031999-0.071997-0.051998-0.14799-0.019999-0.081997-0.023999-0.15999-2e-3 -0.049998 4e-3 -0.099996l0.12599-0.047998 0.15999 0.14399q-0.015999 0.013999-0.033999 0.027999-0.021999 0.019999-0.039998 0.041998-0.015999 0.015999-0.023999 0.039998-6e-3 0.013999-8e-3 0.031999 0 0.015999 0 0.031999l0.12599 0.079997q0.019999-0.01 0.037998-0.021999 0.045998-0.027999 0.079997-0.073997 0.041998-0.055998 0.047998-0.12799 4e-3 -0.073997-0.015999-0.13999-0.01-0.031999-0.025999-0.061997-0.017999-0.027999-0.041998-0.049998-0.045998-0.033999-0.099996-0.059998-0.061998-0.031999-0.12599-0.049998-0.118-0.017999-0.23599-0.019999-0.049998 0-0.095996 8e-3 -0.035998-0.035998-0.055998-0.077997-0.017999-0.039998-0.019999-0.093996-6e-3 -0.24799-0.011999-0.49598-4e-3 -0.19599-0.01-0.39198-4e-3 -0.102-0.059998-0.18799-0.021999-0.033999-0.049998-0.061998-0.045998-0.047998-0.093996-0.085996-0.033999-0.027999-0.079997-0.033999-0.073997-0.013999-0.14399-0.027999-0.077997 2e-3 -0.15399 0.017999-0.065997 0.01-0.116 0.051998-0.055998 0.043998-0.085996 0.106-0.027999 0.063997-0.045998 0.13199-0.013999 0.055998-0.013999 0.114 0 0.017999 0.01 0.029999 0.013999 0.023999 0.037999 0.039998 0.075997 0.045998 0.16199 0.061997 0.065997 0.019999 0.14199 0.015999 4e-3 -0.012 6e-3 -0.021999 0.011999-0.027999 0.021999-0.057998 6e-3 -0.015999 6e-3 -0.031999 2e-3 -0.015999 0-0.027999-4e-3 -0.025999-8e-3 -0.051998-2e-3 -6e-3 -4e-3 -0.011999-6e-3 -8e-3 -0.01-0.013999l-0.15999-0.031999 0.027999-0.116 0.17999-0.045998q0.049998 0.059998 0.102 0.12199 0.023999 0.031999 0.029999 0.059997 0.013999 0.071997 0.017999 0.14399 6e-3 0.087996 0 0.17599 0 0.051998-0.013999 0.099996-0.017999 0.073997-0.045998 0.14399-0.017999 0.045998-0.041998 0.085996-0.013999 0.023999-0.031999 0.045998-0.055998-0.015999-0.108-0.035999-0.093996-0.033999-0.18599-0.063997-0.079997-0.025999-0.15999-0.045998-0.081996 8e-3 -0.16199 0.017999-0.051998 8e-3 -0.102 0.015999-0.031999 0.031999-0.045998 0.067997-0.037998 0.095996-0.057998 0.20799-0.021999 0.12999 2e-3 0.25399 0.015999 0.079997 0.067997 0.13799 0.023999 0.025999 0.053998 0.045998 0.033999 0.027999 0.075997 0.037998 0.047998 0.01 0.099996-2e-3 0.053998-4e-3 0.108-0.019999 0.021999-0.011999 0.039998-0.027999 0.037998-0.033999 0.065997-0.071997 0.015999-0.027999 0.025999-0.059997-8e-3 -0.017999-0.013999-0.031999-0.01-0.017999-0.021999-0.033999-0.011999-0.017999-0.025999-0.031999-0.01-0.014-0.021999-0.023999-0.011999-0.01-0.027999-0.011999-0.035998-0.017999-0.071997-0.027999l-0.16999 0.057998 0.029999-0.21799 0.047998-0.015999q0.063997 0.021999 0.12199 0.051998 0.039998 0.023999 0.069997 0.057998 0.065997 0.071997 0.12 0.15799 0.067997 0.099996 0.118 0.21199 0.051998 0.112 0.083997 0.23399 0.069997 0.23599 0.14599 0.46798 0.13599 0.40398 0.32599 0.78197 0.045998 0.093996 0.104 0.18399 0.104 0.15999 0.21399 0.31599 0.067997 0.095996 0.13399 0.19399 0.063997 0.097996 0.12399 0.19799 0.013999 0.021999 0.021999 0.049998 8e-3 0.025999 4e-3 0.055998-6e-3 0.033999-0.017999 0.069997-0.18199-0.091996-0.34399-0.21599-0.083997-0.063997-0.15799-0.13799-0.15399-0.14999-0.27599-0.32599-0.14399-0.20799-0.27999-0.41798-0.114-0.17599-0.21999-0.35399-0.106-0.17799-0.20399-0.35998-0.033999-0.065997-0.075997-0.12599-0.053998-0.077997-0.12399-0.16399-0.073997-0.093996-0.17599-0.14199-0.077997-0.041998-0.15999-0.053998-0.21799-0.033999-0.43798-0.041998-0.045998 0.021999-0.087996 0.041998-0.071997 0.037998-0.114 0.108-0.031999 0.053998-0.055998 0.108-0.023999 0.055998-0.033999 0.114-0.01 0.061998 2e-3 0.12599 0.013999 0.085996 0.049998 0.16799 0.019999 0.039998 0.059998 0.065997 0.055998 0.037998 0.118 0.067997 0.073997-0.025999 0.14399-0.063997 0.013999-0.01 0.023999-0.023999 0.019999-0.021999 0.027999-0.047998 0.011999-0.049998 0.013999-0.102 0-0.023999-8e-3 -0.043998-0.019999-0.043998-0.049998-0.083997-0.031999-0.033999-0.063997-0.067997l0.059998-0.039998 0.16799 6e-3q0.12399 0.14599 0.22399 0.30199 0.12799 0.20199 0.21999 0.41798 0.081997 0.18999 0.16599 0.37998 0.049998 0.11 0.106 0.21799 0.11 0.20999 0.24199 0.40998 0.12999 0.19399 0.27799 0.37398 0.12199 0.14599 0.25799 0.27799 0.15599 0.15799 0.34199 0.28399 0.18399 0.12599 0.30399 0.32199 0.12 0.19799 0.20399 0.41398 0.043998 0.12199 0.091996 0.24399 0.093996 0.24599 0.13799 0.50998 0.045998 0.25999-0.015999 0.51398-0.059998 0.24399-0.20799 0.45598-0.081997 0.118-0.18399 0.20799-0.067997 0.063997-0.14199 0.12-0.18199 0.14999-0.40598 0.22199-0.22999 0.069997-0.47398 0.059998-0.067997-0.01-0.13199-0.031999-0.16999-0.057992-0.32998-0.13199-0.22799-0.106-0.42998-0.24999-0.15199-0.108-0.26799-0.24799-0.14599-0.17399-0.27999-0.35599-0.12199-0.16199-0.23399-0.33799-0.14799-0.22599-0.28799-0.46398-0.12999-0.22599-0.22599-0.45598-0.077997-0.18399-0.14799-0.37798-0.079997-0.21799-0.12599-0.44798-0.033999-0.18399-0.059998-0.37198-0.025999-0.18799-0.031999-0.37798-8e-3 -0.24799-4e-3 -0.49398 4e-3 -0.25199 0.029999-0.49598 0.017999-0.15799 0.043998-0.30999 0.037998-0.22799 0.089996-0.45198 0.049998-0.22999 0.108-0.45798 0.057997-0.22999 0.14799-0.44598 0.085996-0.21399 0.17599-0.42598 0.061997-0.13999 0.13399-0.27599 0.106-0.19399 0.22799-0.37798 0.12599-0.18999 0.26999-0.36198 0.14199-0.16999 0.29999-0.32799 0.16399-0.15399 0.33199-0.30199 0.15999-0.13599 0.32399-0.26599 0.15999-0.12599 0.31999-0.26399 0.15999-0.13399 0.31999-0.27199 0.15799-0.13599 0.31799-0.27199 0.15999-0.13399 0.32199-0.26799 0.095996-0.077997 0.19599-0.14999 0.116-0.085996 0.17199-0.21599 0.027999-0.065997 0.039998-0.13599 0.037999-0.17199 0.025999-0.34599-0.011999-0.15999-0.089996-0.27999-0.14199-0.22199-0.38998-0.31399-0.24799-0.087996-0.48798-0.011999-0.18599 0.059998-0.37198 0.114-0.23799 0.075997-0.46598 0.18799-0.18599 0.089996-0.36798 0.18999-0.19199 0.106-0.38398 0.21199-0.19399 0.112-0.36398 0.25999-0.18399 0.15599-0.35799 0.31799-0.104 0.095996-0.20199 0.19599-0.097996 0.104-0.19399 0.20999-0.13799 0.15399-0.28599 0.31399-0.14599 0.15599-0.27799 0.31599-0.13999 0.16799-0.27399 0.33399-0.13599 0.16599-0.25999 0.33399z" fill="#FFF" stroke-width=".039998"/>
</svg>
