<svg preserveAspectRatio="none" version="1.1" viewBox="-200 -200 400 400" xmlns="http://www.w3.org/2000/svg">
 <path d="m-163.5-112.3q-3.25 4.5-6.35 9.1-3.15 4.65-5.95 9.5t-5.35 9.85q-2.55 4.95-4.85 9.95-2.35 5.15-4.3 10.35-1.95 5.1-3.7 10.25-0.95 2.7-1.65 5.5-1.75 7.3-2.7 14.8-1.55 12.9-1.65 25.85-0.25 24.1 5.3 47.6 6.95 29.75 23.5 55.55 5.2 8.1 11.15 15.75 6 7.65 12.8 14.95 13.3 14.2 29.55 25.15 9.6 6.55 19.8 12.15 3.2 1.8 6.4 3.55 1.5 0.8 3.05 1.6 4.2 2.25 8.7 4.35 4 1.85 8.15 3.55 11.3 4.7 23.25 6.8 7.85 1.55 15.7 2.6 10.85 1.25 21.9 1.4 6.1 0.1 12.15 0.05 2.6-0.05 5.2-0.15 5.1-0.35 10.25-0.7 12.55-1.1 24.85-3.65 16.8-3.45 32.7-9.8 6.9-2.75 13.35-5.85 17.75-8.6 33.5-20.25 15.4-11.4 28.55-25.2 18.2-19.2 30.6-42.6 5.45-10.3 9.5-21.3 2.7-7.35 4.55-14.85 0.95-3.85 1.8-7.7 1.4-5.7 2.15-11.65 0.5-4.15 0.8-8.35 0.5-6.2 0.7-12.4 0.3-9.4-0.25-18.7-0.6-10.15-2.35-19.9-1.3-7.15-3.15-14.2-1.4-5.4-3.3-10.6-3.8-10.9-8.8-21.1-7.55-15.4-18-29-5.5-7.15-11.55-13.8-4.6-5.15-9.4-10-4.7-4.65-9.6-9.05-14.5-13-30.65-24.1-11.2-7.75-22.8-14.7-4.15-2.5-8.6-4.05-2.55-0.9-5.2-1.4-3.65-0.7-7.35-0.7-3.05 0-5.95 1.05-2.1 0.75-4.05 1.75-2.05 1.05-4 2.4-2.1 1.45-3.65 3.4-3.5 4.4-3.85 10.05-0.1 1.7 0.3 3.35 1.25 5.15 4.6 9.3 1 1.2 2.2 2.3 7.95 7.3 16.65 14.05 6.7 5.15 13.35 10.4 5 3.9 9.75 8.2 4.5 4.1 8.85 8.45 4.25 4.3 8.15 8.9t7.5 9.45q1.8 2.4 3.4 4.95 2.75 4.2 5.1 8.5 2.95 5.35 5.4 10.7 1.7 3.7 3.4 7.4 1.95 4.55 3.6 9.55 1.7 4.85 3.1 9.8 2.8 9.65 4.1 19.8 0.45 3.85 0.8 7.75 0.5 6.05 0.6 12.1 0.05 4.5-0.35 9.05-0.35 4.55-0.95 9-0.95 6.95-2.85 13.75-2 7.1-4.7 13.75-1.8 4.5-3.95 8.8-3.15 6.25-6.7 12.4-1.85 3.15-3.95 6.05-8.65 12-19.65 21.9-3.4 3-7.25 5-5.35 2.7-11.2 3.9-7.55 1.45-14.9-1-3.05-1-6-2.2-7.5-3.3-12.85-9.4-5.25-5.9-8.15-13.05-1-2.5-1.8-5.1-1.1-3.85-1.4-8-0.15-2.1-0.15-4.2-0.05-4.6 0.8-9.35 0.45-2.55 1.25-5.05 1.05-3.5 2.65-6.75 1.55-3.3 3.6-6.25 3.25-4.65 7.4-8.6 5.2-4.95 10.1-10.1 5.35-5.55 10.1-11.75 2.85-3.65 5.55-7.5 3.9-5.6 7.25-11.8 1-1.85 1.9-3.75 1.3-2.75 2.45-5.6 0.55-1.45 0.85-3.05 0.7-3.9 1.4-7.8 0.65-3.8 1.55-7.55 0.65-2.85 1.5-5.7 0.55-0.3 1.1-0.6 0.55-0.25 1.2-0.45 1.35-0.05 2.7-0.05 1.05 0 2.1 0.05 1.25 0.35 2.45 0.8 0.9 0.4 1.65 0.95 0.4 0.3 0.75 0.75l-2.35 4.95-1.15-3q-0.05-0.05-0.1-0.1-0.4-0.05-0.75-0.1-0.05-0.05-0.1-0.05-1.1 0-2.15 0-0.5 0.15-0.85 0.5-0.65 0.45-1.05 1.1-0.35 0.5-0.55 1.1-0.2 0.7-0.2 1.45-0.05 0.8 0.1 1.5 0.05 0.4 0.15 0.8 0.25 0.2 0.5 0.4 0.2 0.25 0.5 0.5 0.2 0.25 0.45 0.4 0.55 0.35 1.2 0.65 0.55 0.3 1.15 0.55 0.45 0.05 0.95 0.1 0.35 0 0.75 0 1.15-0.75 2.3-1.6 1.75-1.25 3.35-2.65 0.55-0.45 1-1.1 0.45-0.6 0.75-1.25 0.6-1.35 1.1-2.65 0.75 0.5 1.6 1 2.2 1.25 4.55 1.75 3.55 0.35 7.1-0.3 1.05-0.35 1.8-1.25 0.9-1 1.55-2.05 0.5-0.8 0.8-1.65 0.3-1.2 0.35-2.4 0.05-1.4-0.25-2.7-0.1-0.75-0.4-1.4-0.1-0.1-0.2-0.2-0.2-0.05-0.4-0.1-1.4-0.6-2.75-0.9-0.45-0.2-0.95-0.2-0.95-0.1-1.6 0.3-1.85 1.45-3.35 3.4l0.1 1.25 2.6 1.35 2.7-2.7 1.05 1.35-0.3 1.45-3.05 1.75q-0.5-0.05-0.9-0.15-0.65-0.3-1.15-0.75-1.7-1.4-3.1-3-3.2-3.6-6.1-7.3 0.1-0.85 0.25-1.65 0.65-2.95 1.15-5.95 0.15-1-0.1-1.9-0.3-1.3-1-2.35-0.75-1.25-1.85-2.2-1.2-0.9-2.4-1.7-2.4 0.7-4.7 1.5-1.95 0.8-3.7 2-0.65 0.45-0.95 1.3-0.3 0.7-0.2 1.45 0.1 0.9 0.6 1.7 0.45 0.75 1.25 1 1.6 0.5 3.35 0.75l1-1.45-1.85-3.65 3.55-0.35 2.2 4.1-1.05 2.6q-0.7 0.2-1.35 0.5-1.75 0.35-3.5 0.5-1.7 0.45-3.5 0.65-1.8 0.3-3.6 0.65-1.25 0.15-2.4 0.3-2.1 1.1-3.7 3.05-2.45 3.2-4.05 6.7-2.6 5.65-5.1 11.3-1.4 3.05-2.65 6.2-1.4 3.25-2.9 6.45-1.7 3.55-3.65 7.05-1.2 2.2-2.8 4.15-0.65 0.85-1.6 1.45l-1.45-1.6q0.75-2.85 1.55-5.7 2.45-8.65 5.25-16.95 2.35-6.95 4.9-13.9 0.55-1.4 1.05-2.8 0.4-1.1 0.65-2.2 0.2-0.7 0.55-1.4 0.7-1.25 1.65-2.3 0.4-0.55 0.95-0.95l0.5 1.7-0.65 0.35-1.1 2.15 1.95 3.05 1.35 0.2q0.2-0.2 0.35-0.4 1.25-1.55 2.1-3.4 1.1-2.25 1-4.65-0.1-1.8-1.5-2.75-1.5-1-3.05-1.35-0.8-0.15-1.6-0.2-0.7 0.25-1.4 0.7-1.3 0.85-2.3 1.95-1.75 2.05-3.2 4.35-1.45 2.35-3 4.65-0.15 0.25-0.4 0.45-0.1-0.35-0.25-0.65-0.4-1-0.15-2.1 0.35-2.15 1.85-3.95 1.85-2.2 4.15-3.9 3.5-2.55 7.1-4.6 2.75-1.75 5.7-3.15 2.4-1.2 4.65-2.55 1.45-0.85 2.45-2.15 0.85-1.15 1.35-2.45 0.5-1.4 0.75-2.85 0.4-2.3 0.35-4.6 0-1-0.45-1.95-1.05-2.3-2.2-4.5-2.45-0.3-4.85 0.15-3.6-0.05-6.75 1.85-0.8 0.5-1.35 1.25-0.9 1.15-1.55 2.5-0.4 0.95-0.55 2-0.05 0.5 0.05 1.05 0.15 0.4 0.55 0.7 0.85 0.8 1.9 1.35 1.45 0.7 2.95 1.25 1.05-0.6 2.1-1.3 0.2-0.15 0.4-0.35 0.25-0.2 0.35-0.45 0.05-0.2 0.05-0.35l-3.7-4.75q1.6-0.1 3.15 0.2 0.85 0 1.5 0.6 0.9 0.85 1.25 2 0.35 1 0.1 2.05-0.25 0.9-0.8 1.75-0.6 0.85-1.45 1.55-0.95 0.8-2.15 1.3-1.1 0.55-2.2 0.95-1.15 0.4-2.3 0.75-3.25 0.8-6.55 1.4-2.25 0.5-4.5 0.5-0.75 0-1.45-0.25-0.4-1.85-0.75-3.7-0.8-4.55-1.75-8.95-0.65-2.75-1.65-5.4-0.3-0.8-0.75-1.35-0.5-0.7-1.1-1.25-1.5-1.3-3.2-2.4-1.25-0.8-2.6-1.4-3.25 0.35-6.1 1.4-0.8 0.3-1.45 0.85-1 1-1.95 2.15-1.7 2.1-2.2 4.9-0.45 2.75 0.85 5.1 0.45 0.75 1.1 1.35 0.6 0.5 1.4 0.9 0.5 0.3 1.15 0.5 0.6-0.15 1.2-0.3 0.75-0.35 1.55-0.75t1.55-0.9l-0.3-3.85-3.2-1.45 0.6-2.8q1.85 0.25 3.6 0.95 1 0.2 1.7 1.05 0.65 0.8 1.1 1.75 1.2 2.7 1.35 5.8 0.2 5.2 0 10.6-0.25 6.45-1.15 12.85-0.5 3.6-1.2 7.15-1.25 6.95-2.9 13.9-0.6 2.45-1.65 4.75-2.85 6.3-6.05 12.45-0.7 1.35-1.7 2.55-0.95 1.15-2.05 2.15l-1.95-0.9q-0.2-1.05-0.25-2.1-0.1-3.6 1.65-6.9 1.35-2.55 2.65-5.05 2.8-5.4 4.85-10.95 1.85-4.95 2.8-10.25 0.45-2.4 0.1-4.65-0.2-1.35-0.75-2.55-1.05-2.55-2.45-4.9-1.15-2-3.1-3.15-1.45-0.7-2.85-1.35-1.45-0.5-2.9-0.5-2.65-0.05-5.3 0.3-1.4-0.1-2.75 0.45-2.2 1-4.15 2.55-2.6 2.05-4.75 4.85-1.75 2.35-2.5 5.3-0.35 1.45-0.55 3-0.35 2.8-0.25 5.65 0.05 1.05 0.55 2.1 0.35 0.85 1.15 1.45 0.7 0.6 1.6 0.85 1.15 0.35 2.4 0.6 0.25-0.15 0.55-0.35 0.55-0.25 1-0.7 0.6-0.55 0.95-1.3 0.4-0.95 0.4-2.05 0.05-1.15-0.25-2.3-0.65-1.95-1.4-3.85l4.45-7q0.85 0.05 1.7 0.15 2.5 0.35 4.45 1.8 2.2 1.75 3.45 4.15 0.45 1 0.3 2.15-0.55 3.8-1.95 7.55-0.9 2.5-2.05 4.95-0.65 1.4-1.55 2.65-1.8 2.45-3.9 4.65-1.05 1.2-2.45 2.05-1.2 0.9-2.65 1.2-3.7 1-7.5 1.55-3.6-2.6-4.8-6.9-1.45-5.05-1.65-10.25-0.2-4.4 0.05-8.85 0.2-3.15 0.7-6.2 0.6-3.05 1.55-6.05 2.15-7.15 5.3-13.75 1.25-2.65 2.85-5.15 1.25-2 2.85-3.8 2.45-2.65 5.3-4.85 2.85-2.1 5.75-4.1 0.85-0.6 1.55-1.25 2.2-2 3.85-4.35 1.4-2.1 2.4-4.3 0.85-1.75 1.05-3.65 0.1-1.15 0-2.35-0.05-1.05-0.4-1.95-0.5-1.15-1.3-2.1-0.85-1.2-2-2.05-1.55-1.1-3.35-1.95-1.15-0.5-2.35-0.85-0.8 0.2-1.6 0.45-2 0.45-3.2 2-1.9 2.7-2.55 6.35-0.2 1.1 0 2.2 0.2 1.05 0.9 1.8 0.65 0.85 1.55 1.2 1 0.3 2.1 0.3 0.55-0.2 1.05-0.45t0.9-0.65q0.45-0.55 0.95-1.1-0.05-0.35-0.15-0.6-0.1-0.4-0.25-0.7-0.2-0.5-0.45-0.8-0.35-0.35-0.7-0.55-0.4-0.1-0.75-0.15-0.3-0.15-0.55-0.35t-0.3-0.45q-0.15-0.35-0.15-0.7t0.1-0.7q0.2-0.25 0.5-0.5 0.25-0.3 0.6-0.45 0.3-0.2 0.65-0.3 0.55-0.2 1.05-0.35 0.65 0.05 1.35 0.15 0.5 0.1 1 0.3 0.4 0.15 0.8 0.45 0.25 0.25 0.5 0.6 0 1.15-0.15 2.3-0.05 0.75-0.4 1.4-0.55 0.95-1.25 1.8-1.3 1.25-2.7 2.4-1.2 0.85-2.5 1.5-1.05 0.6-2.15 1-2.95 0.75-5.85 1.55-0.45-0.45-0.9-0.9-1.6-1.8-2.2-4.2-1.3-5.55-2.85-10.65-0.5-1.75-1.3-3.3-0.95-1.75-2.2-3.1-2.65-3-5.6-5.65-0.95-0.85-2-1.5-1.15-0.55-2.35-0.8-1.35-0.2-2.75 0.15-3.3 0.6-6.55 1.45-1.15 2.15-1.95 4.45-0.55 1.55-0.6 3.2 0 1.55 0.4 2.95 0.25 0.9 0.85 1.55 0.45 0.55 1.2 0.95 0.95 0.5 1.95 0.95l2.7-1.7q0-0.1 0.05-0.2 0.15-0.35 0.3-0.7 0.15-0.25 0.2-0.5 0.05-0.3 0.05-0.55 0-0.45-0.1-0.8-0.15-0.55-0.35-1.05-0.15-0.4-0.45-0.65-1.25-1-2.65-1.85 0.3-0.3 0.65-0.55t0.8-0.35q0.4-0.25 0.9-0.3 0.55-0.05 1.15-0.1 1.25 0.85 2.35 1.8t1.8 2.25q0.5 0.75 0.8 1.65 1.05 3.1 1.5 6.6 0.4 3.25 0.55 6.6 0.1 2.75-0.3 5.5-1.05 6.95-2.6 13.85-0.35 1.8-1.2 3.45-0.8 1.55-1.75 3.1-1.15 1.75-2.9 2.85-0.85 0.5-1.75 0.5-0.7 0.15-1.4 0.35-1.5-0.05-3-0.05-1.4 0.2-2.8 0.6-0.6 0.2-1 0.7-1 1.05-1.7 2.35-0.9 1.8-1.35 3.8-0.3 1.5-0.05 2.9 0.25 1.5 0.85 2.85 0.25 0 0.6 0t0.75 0.05q0.65-0.15 1.2-0.45 0.7-0.25 1.3-0.6l0.75-3.45-1.95-1.1 0.75-1.85 2.8-0.65 2.5 1.5q0.15 0.4 0.2 0.75 0.25 1.45 0.35 2.9 0.15 2.65-0.35 5.3-0.3 1.4-0.75 2.75-0.7 2.35-1.7 4.65-0.45 1.1-1.05 2.1-0.8 1.4-1.9 2.7-1 1.25-2.25 2.35-0.8 0.65-1.65 1.25l-2.05-0.65q-0.25-0.35-0.5-0.7-0.45-0.75-0.75-1.4-1.4-2.7-2.5-5.5-0.95-2.4-1.45-4.9-0.7-3.8-0.85-7.7-0.05-1.4 0.55-2.75 0.75-1.75 2-3.2 0.9-1.25 1.8-2.45 1.25-1.75 2-3.7 1.1-2.55 1.6-5.25 0.55-3.3 0.55-6.6 0-2.45-0.55-4.85-0.25-1.25-1-2.4-1-1.55-2.3-2.5-0.9-0.6-2-0.5-1.3-0.3-2.5 0-1.55 0-2.85 0.75-1.55 0.85-2.8 2.1-0.7 0.5-1.25 1.2-0.45 0.65-0.7 1.45-0.5 1.7-0.4 3.4t0.65 3.4l3.5 0.55 2.8-2.4-0.65-1.9-1.4-1.15 2.85-1.85q1.05 0.4 1.5 1.45 0.8 1.7 0.55 3.5-0.3 2.35-1.25 4.65-0.6 1.45-1.45 2.85-0.5 0.85-1.15 1.6-1.2 1.2-2.5 2.2-0.65 0.45-1.4 0.75t-1.5 0.5q-1.65 0.05-3.2 0.1-1.8-2.75-2.85-5.9-1.05-2.95-1.15-6.2-0.1-4.55-0.05-9.05 0.15-5.5 0.8-10.9 0.45-3.5 1.45-6.8 0.8-2.75 2.2-5.2 0.85-1.7 2.35-2.75 1.85-1.5 3.95-2.55l2.9 2.05-0.65 3.05q-0.4-0.25-0.8-0.45-0.7-0.05-1.35-0.1-0.45 0.15-0.8 0.4-0.65 0.25-1.2 0.65-0.6 0.4-1.15 0.8l0.65 3.05q0.4 0.3 0.9 0.6 0.4 0.3 0.9 0.45 1.1 0.45 2.35 0.8 1.25-0.6 2.55-1.2 0.45-0.25 0.9-0.6 1.65-1.05 2-3.15 0.35-2.5 0.1-5.3-0.1-1.05-0.7-2.05-0.4-0.6-0.9-1-1.4-1.25-3.3-1.65-2.1-0.15-4.15 0-1.95 0.45-3.65 1.65-2.85 2-5.35 4.55-3.4 3.55-6.7 7.15-0.8 0.9-1.75 1.5-1.4 0.85-2.85 1.5-2.9-0.75-5.7-1.6-4.1-1.35-8 0.3-1.15 0.5-2.15 1.25-1.9 1.55-2.2 4.1-0.15 1.2-0.1 2.35 0.1 1.4 0.55 2.8 0.4 1.35 1 2.65 0.3 0.55 0.8 1.1 0.45 0.45 1.05 0.8 1.5 0.55 3.1 1.1 0.55-0.35 1.1-0.75 0.3-0.15 0.55-0.4t0.5-0.5q0.25-0.2 0.4-0.45 0.2-0.25 0.35-0.5 0.2-0.3 0.35-0.6t0.25-0.5q0.2-0.65 0.35-1.3 0.1-0.4 0.15-0.75 0.05-0.4 0.1-0.7l-1.5-1.65-5.75 0.3 0.2-1.95 3.25-2.3q1.85 0.25 3.65 0.75 2.45 0.55 3.9 2.6 0.85 1.15 1.4 2.55 0.65 1.85 0.85 3.75 0.5 5.55 0.8 11.2 0.5 8.8 1.6 17.55 0.35 3.1 1.25 6.1 3 10.3 6.55 20.65 0.85 2.6 1.55 5.35 0.7 2.55 1.05 5.2 0.8 6.05 1.2 12.15 0.1 1.55-0.35 3-0.2 0.85-0.8 1.45-0.6 0.7-1.35 1.35-2.1-1.05-4.2-2.1-1.6-0.7-2.65-2.1-1.8-2.45-3.4-4.95-1.75-2.65-3.3-5.4-1.55-2.8-2.9-5.75-0.8-1.8-1.3-3.7-0.5-2.05-0.6-4-0.05-1.25 0.1-2.5l3.15-1.2 4 3.6q-0.4 0.35-0.85 0.7-0.55 0.5-1 1.05-0.4 0.4-0.6 1-0.15 0.35-0.2 0.8 0 0.4 0 0.8l3.15 2q0.5-0.25 0.95-0.55 1.15-0.7 2-1.85 1.05-1.4 1.2-3.2 0.1-1.85-0.4-3.5-0.25-0.8-0.65-1.55-0.45-0.7-1.05-1.25-1.15-0.85-2.5-1.5-1.55-0.8-3.15-1.25-2.95-0.45-5.9-0.5-1.25 0-2.4 0.2-0.9-0.9-1.4-1.95-0.45-1-0.5-2.35-0.15-6.2-0.3-12.4-0.1-4.9-0.25-9.8-0.1-2.55-1.5-4.7-0.55-0.85-1.25-1.55-1.15-1.2-2.35-2.15-0.85-0.7-2-0.85-1.85-0.35-3.6-0.7-1.95 0.05-3.85 0.45-1.65 0.25-2.9 1.3-1.4 1.1-2.15 2.65-0.7 1.6-1.15 3.3-0.35 1.4-0.35 2.85 0 0.45 0.25 0.75 0.35 0.6 0.95 1 1.9 1.15 4.05 1.55 1.65 0.5 3.55 0.4 0.1-0.3 0.15-0.55 0.3-0.7 0.55-1.45 0.15-0.4 0.15-0.8 0.05-0.4 0-0.7-0.1-0.65-0.2-1.3-0.05-0.15-0.1-0.3-0.15-0.2-0.25-0.35l-4-0.8 0.7-2.9 4.5-1.15q1.25 1.5 2.55 3.05 0.6 0.8 0.75 1.5 0.35 1.8 0.45 3.6 0.15 2.2 0 4.4 0 1.3-0.35 2.5-0.45 1.85-1.15 3.6-0.45 1.15-1.05 2.15-0.35 0.6-0.8 1.15-1.4-0.4-2.7-0.9-2.35-0.85-4.65-1.6-2-0.65-4-1.15-2.05 0.2-4.05 0.45-1.3 0.2-2.55 0.4-0.8 0.8-1.15 1.7-0.95 2.4-1.45 5.2-0.55 3.25 0.05 6.35 0.4 2 1.7 3.45 0.6 0.65 1.35 1.15 0.85 0.7 1.9 0.95 1.2 0.25 2.5-0.05 1.35-0.1 2.7-0.5 0.55-0.3 1-0.7 0.95-0.85 1.65-1.8 0.4-0.7 0.65-1.5-0.2-0.45-0.35-0.8-0.25-0.45-0.55-0.85-0.3-0.45-0.65-0.8-0.25-0.35-0.55-0.6t-0.7-0.3q-0.9-0.45-1.8-0.7l-4.25 1.45 0.75-5.45 1.2-0.4q1.6 0.55 3.05 1.3 1 0.6 1.75 1.45 1.65 1.8 3 3.95 1.7 2.5 2.95 5.3 1.3 2.8 2.1 5.85 1.75 5.9 3.65 11.7 3.4 10.1 8.15 19.55 1.15 2.35 2.6 4.6 2.6 4 5.35 7.9 1.7 2.4 3.35 4.85 1.6 2.45 3.1 4.95 0.35 0.55 0.55 1.25 0.2 0.65 0.1 1.4-0.15 0.85-0.45 1.75-4.55-2.3-8.6-5.4-2.1-1.6-3.95-3.45-3.85-3.75-6.9-8.15-3.6-5.2-7-10.45-2.85-4.4-5.5-8.85t-5.1-9q-0.85-1.65-1.9-3.15-1.35-1.95-3.1-4.1-1.85-2.35-4.4-3.55-1.95-1.05-4-1.35-5.45-0.85-10.95-1.05-1.15 0.55-2.2 1.05-1.8 0.95-2.85 2.7-0.8 1.35-1.4 2.7-0.6 1.4-0.85 2.85-0.25 1.55 0.05 3.15 0.35 2.15 1.25 4.2 0.5 1 1.5 1.65 1.4 0.95 2.95 1.7 1.85-0.65 3.6-1.6 0.35-0.25 0.6-0.6 0.5-0.55 0.7-1.2 0.3-1.25 0.35-2.55 0-0.6-0.2-1.1-0.5-1.1-1.25-2.1-0.8-0.85-1.6-1.7l1.5-1 4.2 0.15q3.1 3.65 5.6 7.55 3.2 5.05 5.5 10.45 2.05 4.75 4.15 9.5 1.25 2.75 2.65 5.45 2.75 5.25 6.05 10.25 3.25 4.85 6.95 9.35 3.05 3.65 6.45 6.95 3.9 3.95 8.55 7.1 4.6 3.15 7.6 8.05 3 4.95 5.1 10.35 1.1 3.05 2.3 6.1 2.35 6.15 3.45 12.75 1.15 6.5-0.4 12.85-1.5 6.1-5.2 11.4-2.05 2.95-4.6 5.2-1.7 1.6-3.55 3-4.55 3.75-10.15 5.55-5.75 1.75-11.85 1.5-1.7-0.25-3.3-0.8-4.25-1.45-8.25-3.3-5.7-2.65-10.75-6.25-3.8-2.7-6.7-6.2-3.65-4.35-7-8.9-3.05-4.05-5.85-8.45-3.7-5.65-7.2-11.6-3.25-5.65-5.65-11.4-1.95-4.6-3.7-9.45-2-5.45-3.15-11.2-0.85-4.6-1.5-9.3t-0.8-9.45q-0.2-6.2-0.1-12.35 0.1-6.3 0.75-12.4 0.45-3.95 1.1-7.75 0.95-5.7 2.25-11.3 1.25-5.75 2.7-11.45 1.45-5.75 3.7-11.15 2.15-5.35 4.4-10.65 1.55-3.5 3.35-6.9 2.65-4.85 5.7-9.45 3.15-4.75 6.75-9.05 3.55-4.25 7.5-8.2 4.1-3.85 8.3-7.55 4-3.4 8.1-6.65 4-3.15 8-6.6 4-3.35 8-6.8 3.95-3.4 7.95-6.8 4-3.35 8.05-6.7 2.4-1.95 4.9-3.75 2.9-2.15 4.3-5.4 0.7-1.65 1-3.4 0.95-4.3 0.65-8.65-0.3-4-2.25-7-3.55-5.55-9.75-7.85-6.2-2.2-12.2-0.3-4.65 1.5-9.3 2.85-5.95 1.9-11.65 4.7-4.65 2.25-9.2 4.75-4.8 2.65-9.6 5.3-4.85 2.8-9.1 6.5-4.6 3.9-8.95 7.95-2.6 2.4-5.05 4.9-2.45 2.6-4.85 5.25-3.45 3.85-7.15 7.85-3.65 3.9-6.95 7.9-3.5 4.2-6.85 8.35-3.4 4.15-6.5 8.35z" fill="#690"/>
</svg>
